<svg id="SvgjsSvg1290" width="288" height="288" xmlns="http://www.w3.org/2000/svg" version="1.1" xmlns:xlink="http://www.w3.org/1999/xlink" xmlns:svgjs="http://svgjs.com/svgjs">

<defs id="SvgjsDefs1291"></defs>

<g id="SvgjsG1292"><svg xmlns="http://www.w3.org/2000/svg" enable-background="new 0 0 512 512" viewBox="0 0 512 512" width="288" height="288">

<path fill="#ef937e" d="M256 185.3h110.8c16.1 0 29.2-13.1 29.2-29.2v0c0-16.1-13.1-29.2-29.2-29.2H256V185.3zM256 185.3H145.2c-16.1 0-29.2-13.1-29.2-29.2v0c0-16.1 13.1-29.2 29.2-29.2H256V185.3z" class="coloref937e svgShape"></path>

<path fill="#f7c8a9" d="M256,284.8L256,284.8c-52.8,0-95.7-42.8-95.7-95.7v-149h191.3v149
			C351.7,242,308.8,284.8,256,284.8z" class="colorf7c8a9 svgShape"></path>
			
			<path fill="#ef937e" d="M351.6 63.7H160.3V127h41.3c9.9 0 19.2-4.9 24.8-13.2L256 69.8l29.6 43.9c5.6 8.3 14.9 13.2 24.8 13.2h41.2V63.7zM351.6 192.6L256 223.2l-95.6-30.6c1.8 51.3 43.9 92.3 95.6 92.3h0C307.7 284.8 349.8 243.8 351.6 192.6z" class="coloref937e svgShape"></path>
			
			<rect width="31" height="10" x="202" y="138" fill="#323d2c" class="color323d2c svgShape"></rect>
			<rect width="10" height="22" x="228" y="162" fill="#323d2c" class="color323d2c svgShape"></rect>
			<rect width="31" height="10" x="279" y="138" fill="#323d2c" class="color323d2c svgShape"></rect>
			<rect width="10" height="22" x="274" y="162" fill="#323d2c" class="color323d2c svgShape"></rect>
			<path fill="#323d2c" d="M256,28L256,28L256,28c-8.7-14.3-24.2-23-40.9-23h-2c-49.5,0-86,46.3-74.5,94.4l6.6,27.5
			h35.5c11.2,0,21.4-6.7,25.8-17l11.2-26.1C224,69,241.5,62.6,256,69.8l0,0l0,0c14.5-7.2,32-0.8,38.4,14.1l11.2,26.1
			c4.4,10.3,14.6,17,25.8,17h35.5l6.6-27.5C384.9,51.3,348.4,5,298.9,5h-2C280.2,5,264.7,13.7,256,28z" class="color323d2c svgShape"></path>
			
			<rect width="10" height="10" x="138" y="151" fill="#e67368" class="colore67368 svgShape"></rect>
			<rect width="10" height="10" x="364" y="151" fill="#e67368" class="colore67368 svgShape"></rect>
			<polygon fill="#9ad2fc" points="206 507 30 449 30 207 75 182 256 240 437 182 482 207 482 449 306 507" class="color9ad2fc svgShape"></polygon>
			<polygon fill="#c075ac" points="180.3 463.3 55.7 422.2 55.7 250.8 180.3 291.8" class="colorc075ac svgShape"></polygon>
			<rect width="100" height="242" x="206" y="265" fill="#f37787" class="colorf37787 svgShape"></rect><rect width="100" height="242" x="206" y="265" fill="#68a1d6" class="color68a1d6 svgShape"></rect><polygon fill="#ebeadf" points="75 182 30 207 206 265 256 240" class="colorebeadf svgShape"></polygon><polygon fill="#c4c1ab" points="46.5 197.8 225.6 255.2 238.4 248.8 58.5 191.2" class="colorc4c1ab svgShape"></polygon><polygon fill="#ebeadf" points="437 182 482 207 306 265 256 240" class="colorebeadf svgShape"></polygon><polygon fill="#c4c1ab" points="286.4 255.2 465.5 197.8 453.5 191.2 273.6 248.8" class="colorc4c1ab svgShape"></polygon><path fill="#3179af" d="M269.1,240h-26.1c-16.3,0-30.9,9.9-36.9,25l0,0h100v0C300,249.9,285.3,240,269.1,240z" class="color3179af svgShape"></path><rect width="50" height="50" x="231" y="295" fill="#b23998" class="colorb23998 svgShape"></rect><rect width="10" height="110" x="236" y="367" fill="#3179af" class="color3179af svgShape"></rect><rect width="10" height="110" x="266" y="367" fill="#3179af" class="color3179af svgShape"></rect><path fill="#f7c8a9" d="M17.7,426.2l21.5,6.2c7.9,2.3,15.8-3.6,15.8-11.9V373c0-9.5-6.3-17.8-15.4-20.5L27.5,349
			C16.3,345.8,5,354.2,5,366v43.3C5,417.1,10.2,424,17.7,426.2z" class="colorf7c8a9 svgShape"></path><path fill="#ef937e" d="M24.8,374.4l30.2,8.8V373c0-0.1,0-0.1,0-0.2l-27.4-8L24.8,374.4z" class="coloref937e svgShape"></path><polygon fill="#ef937e" points="24.8 395.4 55 404.2 55 393.8 27.6 385.8" class="coloref937e svgShape"></polygon><path fill="#ef937e" d="M27.6,406.8l-2.8,9.6l29.4,8.5c0.5-1.4,0.8-2.9,0.8-4.4v-5.7L27.6,406.8z" class="coloref937e svgShape"></path><path fill="#f7c8a9" d="M494.3,426.2l-21.5,6.2c-7.9,2.3-15.8-3.6-15.8-11.9V373c0-9.5,6.3-17.8,15.4-20.5l12.1-3.5
			c11.3-3.3,22.5,5.2,22.5,16.9v43.3C507,417.1,501.8,424,494.3,426.2z" class="colorf7c8a9 svgShape"></path><path fill="#ef937e" d="M487.2,374.4l-2.8-9.6l-27.4,8c0,0.1,0,0.1,0,0.2v10.2L487.2,374.4z" class="coloref937e svgShape"></path><polygon fill="#ef937e" points="457 393.8 457 404.2 487.2 395.4 484.4 385.8" class="coloref937e svgShape"></polygon><path fill="#ef937e" d="M484.4,406.8l-27.4,8v5.7c0,1.6,0.3,3.1,0.8,4.4l29.4-8.5L484.4,406.8z" class="coloref937e svgShape"></path><rect width="10" height="108.4" x="389" y="215.8" fill="#3179af" transform="rotate(71.761 393.98 269.981)" class="color3179af svgShape"></rect><rect width="10" height="108.4" x="389" y="249.8" fill="#3179af" transform="rotate(71.761 393.98 303.98)" class="color3179af svgShape"></rect><rect width="10" height="71.9" x="371.7" y="307.8" fill="#3179af" transform="rotate(71.761 376.662 343.685)" class="color3179af svgShape"></rect><ellipse cx="118" cy="357" fill="#b23998" rx="33.7" ry="63" class="colorb23998 svgShape"></ellipse><path fill="#1c2617" d="M256,69.8c10.1-5.1,21.7-3.4,30,3.1V6.3c-12.4,2.9-23.2,10.6-30,21.7v0V69.8z" class="color1c2617 svgShape"></path><path fill="#060d1a" d="M180.3 468.3c-.5 0-1.1-.1-1.6-.3L54.1 426.9c-2-.7-3.4-2.6-3.4-4.7V250.8c0-1.6.8-3.1 2.1-4.1 1.3-.9 3-1.2 4.5-.7l124.7 41.1c2 .7 3.4 2.6 3.4 4.7v171.4c0 1.6-.8 3.1-2.1 4.1C182.4 467.9 181.4 468.3 180.3 468.3zM60.7 418.5l114.7 37.8V295.5L60.7 257.7V418.5zM306 512H206c-2.8 0-5-2.2-5-5V265c0-2.8 2.2-5 5-5h100c2.8 0 5 2.2 5 5v242C311 509.8 308.8 512 306 512zM211 502h90V270h-90V502z" class="color060d1a svgShape"></path><path fill="#060d1a" d="M306 270H206c-1.7 0-3.2-.8-4.1-2.2-.9-1.4-1.1-3.1-.5-4.7 6.8-17.1 23.2-28.1 41.6-28.1h26.1c18.4 0 34.7 11 41.6 28.1.6 1.5.4 3.3-.5 4.7C309.2 269.2 307.7 270 306 270zM214.3 260h83.4c-6.4-9.3-17-15-28.6-15h-26.1C231.3 245 220.7 250.7 214.3 260zM281 350h-50c-2.8 0-5-2.2-5-5v-50c0-2.8 2.2-5 5-5h50c2.8 0 5 2.2 5 5v50C286 347.8 283.8 350 281 350zM236 340h40v-40h-40V340z" class="color060d1a svgShape"></path><rect width="10" height="110" x="236" y="367" fill="#060d1a" class="color060d1a svgShape"></rect><rect width="10" height="110" x="266" y="367" fill="#060d1a" class="color060d1a svgShape"></rect><path fill="#060d1a" d="M42.7,437.9c-1.6,0-3.3-0.2-4.9-0.7L16.3,431l0,0C6.7,428.2,0,419.3,0,409.3V366
				c0-7.2,3.3-13.8,9-18.1c5.7-4.3,13-5.6,19.9-3.6l12.1,3.5c11.2,3.2,19,13.6,19,25.3v47.5c0,5.5-2.5,10.6-6.9,13.9
				C50,436.7,46.4,437.9,42.7,437.9z M19.1,421.4l21.5,6.2c2.3,0.7,4.6,0.2,6.5-1.2c1.9-1.4,2.9-3.6,2.9-5.9V373
				c0-7.2-4.8-13.7-11.8-15.7l-12.1-3.5c-3.8-1.1-7.9-0.4-11.1,2c-3.2,2.4-5,6.1-5,10.1v43.3C10,414.8,13.7,419.8,19.1,421.4
				L19.1,421.4z" class="color060d1a svgShape"></path><rect width="30" height="10" x="25.6" y="368.8" fill="#060d1a" transform="rotate(16.171 40.59 373.855)" class="color060d1a svgShape"></rect><rect width="30" height="10" x="25.6" y="389.8" fill="#060d1a" transform="rotate(16.171 40.59 394.857)" class="color060d1a svgShape"></rect><rect width="30" height="10" x="25.6" y="410.8" fill="#060d1a" transform="rotate(16.171 40.59 415.86)" class="color060d1a svgShape"></rect><path fill="#060d1a" d="M469.3,437.9c-3.7,0-7.3-1.2-10.4-3.5c-4.4-3.3-6.9-8.4-6.9-13.9V373
				c0-11.6,7.8-22,19-25.3l12.1-3.5c6.9-2,14.1-0.7,19.9,3.6s9,10.9,9,18.1v43.3c0,10-6.7,18.9-16.3,21.7l0,0l-21.5,6.2
				C472.6,437.7,471,437.9,469.3,437.9z M489.4,353.3c-1.2,0-2.4,0.2-3.6,0.5l-12.1,3.5c-6.9,2-11.8,8.4-11.8,15.7v47.5
				c0,2.3,1.1,4.5,2.9,5.9c1.9,1.4,4.2,1.8,6.5,1.2l21.5-6.2c5.4-1.6,9.1-6.5,9.1-12.1V366c0-4-1.8-7.7-5-10.1
				C494.7,354.2,492.1,353.3,489.4,353.3z" class="color060d1a svgShape"></path><rect width="10" height="30" x="466.4" y="358.8" fill="#060d1a" transform="rotate(73.829 471.426 373.833)" class="color060d1a svgShape"></rect
				<rect width="10" height="30" x="466.4" y="379.8" fill="#060d1a" transform="rotate(73.829 471.426 394.834)" class="color060d1a svgShape"></rect><rect width="10" height="30" x="466.4" y="400.8" fill="#060d1a" transform="rotate(73.829 471.426 415.835)" class="color060d1a svgShape"></rect><rect width="175" height="10" x="48.3" y="216.2" fill="#060d1a" transform="rotate(17.768 135.814 221.197)" class="color060d1a svgShape"></rect><rect width="10" height="175" x="371.2" y="133.7" fill="#060d1a" transform="rotate(72.23 376.171 221.205)" class="color060d1a svgShape"></rect><rect width="10" height="108.4" x="389" y="215.8" fill="#060d1a" transform="rotate(71.761 393.98 269.981)" class="color060d1a svgShape"></rect><rect width="10" height="108.4" x="389" y="249.8" fill="#060d1a" transform="rotate(71.761 393.98 303.98)" class="color060d1a svgShape"></rect><rect width="10" height="71.9" x="371.7" y="307.8" fill="#060d1a" transform="rotate(71.761 376.662 343.685)" class="color060d1a svgShape"></rect><path fill="#060d1a" d="M118 425c-21.7 0-38.7-29.9-38.7-68s17-68 38.7-68 38.7 29.9 38.7 68S139.7 425 118 425zM118 299c-15.5 0-28.7 26.6-28.7 58s13.1 58 28.7 58 28.7-26.6 28.7-58S133.5 299 118 299zM157.7 211.2c-1.6-7.2-2.4-14.6-2.4-22V127h10v62.2c0 6.7.7 13.3 2.2 19.8L157.7 211.2z" class="color060d1a svgShape"></path><rect width="10" height="58.3" x="346.7" y="127" fill="#060d1a" class="color060d1a svgShape"></rect><rect width="31" height="10" x="202" y="138" fill="#060d1a" class="color060d1a svgShape"></rect><rect width="10" height="22" x="228" y="162" fill="#060d1a" class="color060d1a svgShape"></rect><rect width="31" height="10" x="279" y="138" fill="#060d1a" class="color060d1a svgShape"></rect><rect width="10" height="22" x="274" y="162" fill="#060d1a" class="color060d1a svgShape"></rect><path fill="#060d1a" d="M366.8 190.3h-15.2c-2.8 0-5-2.2-5-5V127c0-2.8 2.2-5 5-5h15.2c18.8 0 34.2 15.3 34.2 34.2C401 175 385.7 190.3 366.8 190.3zM356.7 180.3h10.2c13.3 0 24.2-10.8 24.2-24.2S380.2 132 366.8 132h-10.2V180.3zM160.3 190.3h-15.2c-18.8 0-34.2-15.3-34.2-34.2 0-18.8 15.3-34.2 34.2-34.2h15.2c2.8 0 5 2.2 5 5v58.3C165.3 188.1 163.1 190.3 160.3 190.3zM145.2 132c-13.3 0-24.2 10.8-24.2 24.2s10.8 24.2 24.2 24.2h10.2V132H145.2z" class="color060d1a svgShape"></path><path fill="#060d1a" d="M366.8,132h-35.5c-13.3,0-25.2-7.9-30.4-20l-11.2-26.1c-2.5-5.9-7.2-10.4-13.3-12.6
					c-6-2.2-12.5-1.8-18.3,1c-1.4,0.7-3.1,0.7-4.5,0c-5.7-2.9-12.2-3.2-18.3-1c-6,2.2-10.8,6.7-13.3,12.6L211,111.9
					c-5.2,12.2-17.2,20-30.4,20h-35.5c-2.3,0-4.3-1.6-4.9-3.8l-6.6-27.5c-5.8-24.5-0.3-49.8,15.3-69.5S188,0,213.1,0h2
					C231,0,246,7.3,256,19.4C266,7.3,281,0,296.9,0h2C324,0,347.4,11.3,363,31.1s21.2,45.1,15.3,69.5l-6.6,27.5
					C371.2,130.4,369.1,132,366.8,132z M268.5,61.8c3.8,0,7.7,0.7,11.4,2c8.6,3.2,15.4,9.6,19,18l11.2,26.1c3.6,8.5,12,14,21.2,14
					h31.5l5.7-23.7c5.1-21.5,0.2-43.7-13.4-61S321,10,298.9,10h-2c-14.9,0-28.9,7.9-36.6,20.6c-0.9,1.5-2.5,2.4-4.3,2.4
					s-3.4-0.9-4.3-2.4C244,17.9,230,10,215.1,10h-2c-22.1,0-42.6,9.9-56.2,27.3s-18.6,39.6-13.4,61l5.7,23.7h31.5
					c9.2,0,17.6-5.5,21.2-14L213,81.9c3.6-8.5,10.4-14.9,19-18c7.9-2.9,16.3-2.7,23.9,0.5C260,62.7,264.3,61.8,268.5,61.8z" class="color060d1a svgShape"></path><rect width="10" height="10" x="138" y="151" fill="#060d1a" class="color060d1a svgShape"></rect><rect width="10" height="10" x="364" y="151" fill="#060d1a" class="color060d1a svgShape"></rect><rect width="10" height="42" x="251" y="28" fill="#060d1a" class="color060d1a svgShape"></rect><path fill="#060d1a" d="M206 512c-.5 0-1.1-.1-1.6-.3l-176-58c-2-.7-3.4-2.6-3.4-4.7v-19.3h10v15.6l166 54.7V268.6L35 213.9v115.5H25V207c0-1.6.8-3.1 2.1-4.1 1.3-.9 3-1.2 4.5-.7l176 58c2 .7 3.4 2.6 3.4 4.7v242c0 1.6-.8 3.1-2.1 4.1C208.1 511.7 207 512 206 512zM306 512c-1 0-2.1-.3-2.9-.9-1.3-.9-2.1-2.4-2.1-4.1V265c0-2.2 1.4-4.1 3.4-4.7l176-58c1.5-.5 3.2-.2 4.5.7 1.3.9 2.1 2.4 2.1 4.1v142.7h-10V213.9l-166 54.7v231.5l166-54.7v-15.6h10V449c0 2.2-1.4 4.1-3.4 4.7l-176 58C307.1 511.9 306.5 512 306 512z" class="color060d1a svgShape"></path><path fill="#060d1a" d="M204.4,269.7l-176-58c-1.9-0.6-3.2-2.3-3.4-4.3c-0.2-2,0.8-3.9,2.6-4.8l45-25
				c1.2-0.7,2.6-0.8,4-0.4l181,58l-3.1,9.5L75.6,187.4l-33.1,18.4l165.2,54.4L204.4,269.7z" class="color060d1a svgShape"></path><path fill="#060d1a" d="M307.6,269.7l-3.1-9.5l165.2-54.4l-33.1-18.4l-178.9,57.3l-3.1-9.5l181-58
				c1.3-0.4,2.7-0.3,4,0.4l45,25c1.7,1,2.7,2.9,2.6,4.8c-0.2,2-1.5,3.7-3.4,4.3L307.6,269.7z" class="color060d1a svgShape"></path></svg></g></svg>